# xmcd
#
# Track frame offsets: 
#        150
#        16535
#        30973
#        47093
#        62760
#        79845
#        95300
#        110826
#        123516
#        138581
#        154674
#        173145
#        190976
#        207749
#        223361
#        237980
#        254061
#        269806
#        287886
#        304074
#
# Disc length: 4624 seconds
#
# Revision: 0
# Processed by: cddbd v1.5.2PL0 Copyright (c) Steve Scherf et al.
# Submitted via: ExactAudioCopy v1.0b3
#
DISCID=33120e14
DTITLE=Various Artist - Trance The Vocal Session Vol. 07 - CD 1
DYEAR=1900
DGENRE=
TTITLE0=ATB - Here With Me (Radio Edit)
TTITLE1=Tiesto Feat. Kirsty Hawkshaw - Just Be (Antillas Radio Cut)
TTITLE2=Future Breeze - Out Of The Blue (Vocal Trance Radio Edit)
TTITLE3=CJ Stone - Shine (Single Mix)
TTITLE4=Symbios - Beauty and The Beast
TTITLE5=Akira - Piece Of Heaven (Radio Mix)
TTITLE6=Manyou - Drifting Away (Original Radio Edit)
TTITLE7=Gigi D'Agostino and Datura - Summer Of Energy (Gigi D'Agostino F
TTITLE7=M Mix)
TTITLE8=DJ Dean - Ballanation No. 4 (Original Radio Edit)
TTITLE9=Oscar De La Fuente - The Sun Is Out (Roland Kenzo Edit)
TTITLE10=DJ Tatana - Elements Of Culture (Tillmann Uhrmacher Edit)
TTITLE11=Marc Van Linden Feat. De-Vision - The Real Thing (Club Cut)
TTITLE12=Ava Dayton - Again (Chris "The Greek" Panaghi Radio Mix)
TTITLE13=Michael Splint Feat. Sasja - Secrets (Broke My Heart) (Radio 
TTITLE13=Edit)
TTITLE14=Mario Lopez - You Play Me Like A Jojo (Armin and Friends Origin
TTITLE14=al Radio Mix)
TTITLE15=Galimar - Sunshine On A Rainy Day (Radio Mix)
TTITLE16=Osiris Project Feat. Hanna - Never Let U Go (Radio Cut)
TTITLE17=Elles and Empyrial Sun - From Dark To Light (Original Edit)
TTITLE18=The First Trance Opera In The World - Your Only Motions (Sing
TTITLE18=le Mix)
TTITLE19=Second Sun - The Spell (Original Mix)
EXTD=
EXTT0=
EXTT1=
EXTT2=
EXTT3=
EXTT4=
EXTT5=
EXTT6=
EXTT7=
EXTT8=
EXTT9=
EXTT10=
EXTT11=
EXTT12=
EXTT13=
EXTT14=
EXTT15=
EXTT16=
EXTT17=
EXTT18=
EXTT19=
PLAYORDER=
